<?xml version="1.0" encoding="iso-8859-1"?>
<!-- Generator: Adobe Illustrator 19.0.0, SVG Export Plug-In . SVG Version: 6.00 Build 0)  -->
<svg version="1.1" id="Capa_1" xmlns="http://www.w3.org/2000/svg" xmlns:xlink="http://www.w3.org/1999/xlink" x="0px" y="0px"
	 viewBox="0 0 512 512" style="enable-background:new 0 0 512 512;" xml:space="preserve">
<circle style="fill:#963B11;" cx="256" cy="256" r="256"/>
<path style="fill:#83360B;" d="M512,256c0-3.309-0.083-6.597-0.208-9.875L326.667,61L165.333,455.667l53.661,53.661
	C231.079,511.077,243.431,512,256,512C397.385,512,512,397.385,512,256z"/>
<path style="fill:#FFEDF0;" d="M287.333,455.667h-122c0-41.958,7.007-65.005,12.638-83.524c4.433-14.581,7.362-24.213,7.362-48.034
	s-2.929-33.453-7.362-48.034c-5.631-18.519-12.638-41.566-12.638-83.524c0-41.957,7.008-65.003,12.638-83.521
	c4.433-14.58,7.362-24.211,7.362-48.03h122c0,41.957-7.008,65.003-12.638,83.521c-4.433,14.58-7.362,24.211-7.362,48.03
	c0,23.821,2.929,33.453,7.362,48.034c5.631,18.519,12.638,41.565,12.638,83.523s-7.007,65.005-12.638,83.524
	C290.262,422.213,287.333,431.846,287.333,455.667z"/>
<path style="fill:#FFD2E6;" d="M172.29,255.905c1.845,7.544,3.837,14.104,5.681,20.17c4.433,14.581,7.362,24.213,7.362,48.034
	s-2.929,33.453-7.362,48.034c-5.631,18.519-12.638,41.566-12.638,83.524h122c0-23.821,2.929-33.453,7.362-48.034
	c5.631-18.519,12.638-41.566,12.638-83.524c0-31.241-3.885-51.995-8.194-68.204H172.29z"/>
<g>
	<path style="fill:#F0A0A5;" d="M228,324.109c0-23.821-2.929-33.453-7.362-48.034C215.008,257.557,208,234.509,208,192.551
		c0-41.957,7.008-65.003,12.638-83.521C225.071,94.451,228,84.819,228,61h-42.667c0,23.819-2.929,33.451-7.362,48.03
		c-5.63,18.518-12.638,41.564-12.638,83.521c0,41.958,7.007,65.005,12.638,83.524c4.433,14.581,7.362,24.213,7.362,48.034
		s-2.929,33.453-7.362,48.034c-5.631,18.519-12.638,41.566-12.638,83.524H208c0-41.958,7.007-65.005,12.638-83.524
		C225.071,357.562,228,347.93,228,324.109z"/>
	<path style="fill:#F0A0A5;" d="M208,192.551c0-41.957,7.008-65.003,12.638-83.521C225.071,94.451,228,84.819,228,61h-42.667
		c0,23.819-2.929,33.451-7.362,48.03c-5.63,18.518-12.638,41.564-12.638,83.521c0,28.212,3.169,47.869,6.957,63.354h42.667
		C211.169,240.42,208,220.764,208,192.551z"/>
</g>
<path style="fill:#DC8C91;" d="M214.957,255.905H172.29c1.845,7.544,3.837,14.104,5.681,20.17
	c4.433,14.581,7.362,24.213,7.362,48.034s-2.929,33.453-7.362,48.034c-5.631,18.519-12.638,41.566-12.638,83.524H208
	c0-41.958,7.007-65.005,12.638-83.524c4.433-14.581,7.362-24.213,7.362-48.034s-2.929-33.453-7.362-48.034
	C218.794,270.009,216.802,263.449,214.957,255.905z"/>
<g>
	<path style="fill:#F0A0A5;" d="M326.667,324.109c0-23.821-2.929-33.453-7.362-48.034c-5.631-18.519-12.638-41.566-12.638-83.524
		c0-41.957,7.008-65.003,12.638-83.521c4.433-14.58,7.362-24.211,7.362-48.03H284c0,23.819-2.929,33.451-7.362,48.03
		C271.008,127.548,264,150.595,264,192.551c0,41.958,7.007,65.005,12.638,83.524c4.433,14.581,7.362,24.213,7.362,48.034
		s-2.929,33.453-7.362,48.034C271.007,390.662,264,413.708,264,455.667h42.667c0-41.958,7.007-65.005,12.638-83.524
		C323.738,357.562,326.667,347.93,326.667,324.109z"/>
	<path style="fill:#F0A0A5;" d="M306.667,192.551c0-41.957,7.008-65.003,12.638-83.521c4.433-14.58,7.362-24.211,7.362-48.03H284
		c0,23.819-2.929,33.451-7.362,48.03C271.008,127.548,264,150.595,264,192.551c0,28.212,3.169,47.869,6.957,63.354h42.667
		C309.836,240.42,306.667,220.764,306.667,192.551z"/>
</g>
<path style="fill:#DC8C91;" d="M313.624,255.905h-42.667c1.845,7.544,3.837,14.104,5.681,20.17
	c4.433,14.581,7.362,24.213,7.362,48.034s-2.929,33.453-7.362,48.034C271.008,390.662,264,413.708,264,455.667h42.667
	c0-41.958,7.007-65.005,12.638-83.524c4.433-14.581,7.362-24.213,7.362-48.034s-2.929-33.453-7.362-48.034
	C317.46,270.009,315.469,263.449,313.624,255.905z"/>
<g>
</g>
<g>
</g>
<g>
</g>
<g>
</g>
<g>
</g>
<g>
</g>
<g>
</g>
<g>
</g>
<g>
</g>
<g>
</g>
<g>
</g>
<g>
</g>
<g>
</g>
<g>
</g>
<g>
</g>
</svg>
